Coordinates
version=1
nRows=60
nColumns=12
inDegrees=yes

Units are S.I. units (second, meters, Newtons, ...)
Angles are in degrees

endheader
time	SC_y	SC_z	SC_x	AC_y	AC_z	AC_x	GH_y	GH_z	GH_yy	EL_x	PS_y
       0.0               -25.5          12.91          21.32          68.33         -14.38          9.648          86.53          79.91           49.9          45.77          85.52
   0.04075               -25.5          12.91          21.33          68.32         -14.38          9.648          86.52           79.9          49.88          45.78          85.53
    0.0815               -25.5           12.9          21.34          68.32         -14.38          9.647          86.51          79.89          49.86          45.78          85.54
    0.1223              -25.49           12.9          21.34          68.32         -14.37          9.647           86.5          79.87          49.83          45.78          85.55
     0.163              -25.49           12.9          21.35          68.31         -14.37          9.647          86.49          79.86          49.81          45.79          85.56
    0.2038              -25.49           12.9          21.36          68.31         -14.37          9.646          86.47          79.85          49.78          45.79          85.57
    0.2445              -25.49           12.9          21.37           68.3         -14.36          9.646          86.46          79.83          49.75          45.79          85.58
    0.2853              -25.49           12.9          21.38           68.3         -14.36          9.645          86.44          79.81          49.72           45.8          85.59
     0.326              -25.49           12.9          21.39          68.29         -14.36          9.645          86.43           79.8          49.69           45.8          85.61
    0.3668              -25.48           12.9           21.4          68.28         -14.35          9.644          86.41          79.78          49.65          45.81          85.62
    0.4075              -25.48           12.9          21.41          68.28         -14.35          9.644          86.39          79.76          49.61          45.81          85.64
    0.4483              -25.48          12.89          21.42          68.27         -14.34          9.643          86.37          79.74          49.57          45.82          85.65
     0.489              -25.48          12.89          21.44          68.26         -14.34          9.642          86.35          79.71          49.53          45.82          85.67
    0.5298              -25.47          12.89          21.45          68.26         -14.33          9.642          86.33          79.69          49.48          45.83          85.69
    0.5705              -25.47          12.89          21.47          68.25         -14.33          9.641          86.31          79.66          49.43          45.83          85.71
    0.6113              -25.47          12.89          21.49          68.24         -14.32           9.64          86.28          79.63          49.37          45.84          85.73
     0.652              -25.46          12.88          21.51          68.23         -14.31          9.639          86.25           79.6          49.31          45.85          85.76
    0.6928              -25.46          12.88          21.53          68.22          -14.3          9.638          86.22          79.56          49.24          45.86          85.78
    0.7335              -25.45          12.88          21.55           68.2          -14.3          9.637          86.18          79.53          49.17          45.87          85.81
    0.7743              -25.45          12.88          21.57          68.19         -14.29          9.636          86.14          79.49          49.09          45.88          85.84
     0.815              -25.44          12.87           21.6          68.18         -14.28          9.634           86.1          79.44           49.0          45.89          85.88
    0.8558              -25.44          12.87          21.63          68.16         -14.27          9.633          86.06          79.39           48.9           45.9          85.92
    0.8965              -25.43          12.86          21.66          68.14         -14.25          9.631          86.01          79.33          48.79          45.92          85.96
    0.9373              -25.43          12.86           21.7          68.12         -14.24          9.629          85.95          79.27          48.68          45.93           86.0
     0.978              -25.42          12.86          21.74           68.1         -14.23          9.627          85.89           79.2          48.54          45.95          86.06
     1.019              -25.41          12.85          21.78          68.08         -14.21          9.625          85.82          79.13           48.4          45.97          86.11
      1.06               -25.4          12.84          21.83          68.05         -14.19          9.623          85.74          79.04          48.23          45.99          86.18
       1.1              -25.39          12.84          21.89          68.02         -14.17           9.62          85.65          78.95          48.05          46.01          86.25
     1.141              -25.38          12.83          21.96          67.98         -14.14          9.617          85.55          78.84          47.84          46.04          86.33
     1.182              -25.36          12.82          22.03          67.94         -14.12          9.613          85.44          78.71           47.6          46.07          86.43
     1.223              -25.35          12.81          22.11           67.9         -14.09          9.609          85.31          78.57          47.33           46.1          86.54
     1.263              -25.33           12.8          22.21          67.85         -14.05          9.604          85.16          78.41          47.01          46.15          86.66
     1.304              -25.31          12.78          22.32          67.79         -14.01          9.599          84.99          78.22          46.65          46.19           86.8
     1.345              -25.28          12.77          22.45          67.72         -13.96          9.592          84.79          78.01          46.24          46.25          86.96
     1.386              -25.25          12.75          22.59          67.64         -13.91          9.585          84.56          77.75          45.75          46.31          87.16
     1.426              -25.22          12.73          22.77          67.54         -13.84          9.576          84.29          77.45          45.17          46.38          87.38
     1.467              -25.18           12.7          22.98          67.43         -13.76          9.566          83.96           77.1          44.48          46.47          87.65
     1.508              -25.13          12.67          23.23          67.29         -13.67          9.553          83.57          76.67          43.66          46.58          87.98
     1.549              -25.07          12.63          23.54          67.13         -13.55          9.538           83.1          76.16          42.67           46.7          88.37
     1.589               -25.0          12.59          23.91          66.92         -13.42           9.52          82.52          75.53          41.45          46.86          88.85
      1.63              -24.91          12.53          24.37          66.68         -13.25          9.497          81.81          74.75          39.95          47.05          89.43
     1.671               -24.8          12.46          24.94          66.37         -13.03          9.468          80.93          73.78          38.08           47.3          90.17
     1.712              -24.66          12.37          25.66          65.98         -12.76          9.433          79.81          72.56          35.73           47.6           91.1
     1.752              -24.48          12.26          26.58          65.48         -12.42          9.387          78.39          71.01          32.73          47.98          92.27
     1.793              -24.25          12.11          27.75          64.84         -11.98          9.329          76.57          69.02           28.9          48.48          93.78
     1.834              -23.96          11.93          29.25          64.03         -11.42          9.254          74.24          66.47          23.98          49.11          95.72
     1.875              -23.59          11.69          31.18          62.99         -10.71          9.159          71.26          63.21           17.7          49.92          98.19
     1.915              -23.12           11.4          33.59          61.67         -9.806          9.038          67.51          59.11          9.799          50.94          101.3
     1.956              -22.55          11.03          36.54          60.08         -8.708          8.892          62.94          54.12         0.1719          52.18          105.1
     1.997              -21.89          10.61          39.95          58.23         -7.435          8.722          57.65          48.34         -10.99          53.62          109.5
     2.038              -21.18          10.16          43.65          56.22         -6.057          8.539          51.92          42.07         -23.07          55.17          114.2
     2.078              -20.46          9.701          47.35          54.22         -4.678          8.355          46.19          35.81         -35.15          56.73          119.0
     2.119               -19.8          9.281          50.76          52.37         -3.406          8.186           40.9          30.02         -46.31          58.16          123.4
      2.16              -19.23          8.918           53.7          50.77         -2.308          8.039          36.33          25.03         -55.94           59.4          127.1
     2.201              -18.76           8.62          56.12          49.46         -1.406          7.919          32.59          20.93         -63.84          60.42          130.2
     2.241              -18.39          8.383          58.04          48.42        -0.6898          7.824          29.61          17.67         -70.12          61.23          132.7
     2.282               -18.1          8.198          59.55           47.6        -0.1288          7.749          27.27          15.12         -75.04          61.86          134.7
     2.323              -17.87          8.053          60.72          46.97         0.3084          7.691          25.46          13.14         -78.87          62.36          136.2
     2.364               -17.7          7.941          61.64          46.47           0.65          7.645          24.04          11.58         -81.87          62.74          137.3
     2.404              -17.56          7.852          62.36          46.08         0.9186          7.609          22.92          10.36         -84.22          63.05          138.3
